<?xml version="1.0" encoding="utf-8"?>
<!-- Svg Vector Icons : http://www.onlinewebfonts.com/icon -->
<!DOCTYPE svg PUBLIC "-//W3C//DTD SVG 1.1//EN" "http://www.w3.org/Graphics/SVG/1.1/DTD/svg11.dtd">
<svg version="1.1" xmlns="http://www.w3.org/2000/svg" xmlns:xlink="http://www.w3.org/1999/xlink" x="0px" y="0px" viewBox="0 0 256 256" enable-background="new 0 0 256 256" xml:space="preserve">
<metadata> Svg Vector Icons : http://www.onlinewebfonts.com/icon </metadata>
<g><g><g><path fill="#000000" d="M38,10.4c-12.4,2.1-22.5,11-26.8,23.8l-1.1,3.2l-0.1,84c-0.1,75.5,0,84.4,0.6,87.6c1.4,6.9,4.8,13.2,10.1,18.4c4.5,4.6,9.2,7.4,15.8,9.6l3.2,1.1l46.7,0.1l46.7,0.1l-6.4-6.4c-9.2-9.2-14.7-18-18.5-29.7c-2.8-8.4-3.5-13.2-3.5-23.3c0-7.2,0.2-9.6,1.1-13.9c6.1-30.2,29.1-53.2,59.3-59.3c4.3-0.9,6.7-1.1,13.9-1.1c10.2,0,14.9,0.7,23.3,3.5c11.6,3.8,20.4,9.3,29.7,18.5l6.4,6.4l-0.1-46.7l-0.1-46.7l-1.1-3.2c-2.2-6.6-5-11.3-9.6-15.8c-5.2-5.2-11.4-8.6-18.2-10C206,10,196.9,9.9,122.9,10C77.4,10,39.2,10.2,38,10.4z M70.8,42c2.1,1.1,2.4,2.7,2.4,13.2v9.6h9.7c10.9,0,12.4,0.3,13.3,2.7c0.5,1.2,0.5,1.7,0,2.9c-1,2.4-2.4,2.7-13.3,2.7h-9.7v9.7c0,10.9-0.3,12.4-2.7,13.3c-1.2,0.5-1.7,0.5-2.9,0c-2.4-1-2.7-2.4-2.7-13.3v-9.7h-9.7c-10.9,0-12.4-0.3-13.3-2.7c-0.5-1.2-0.5-1.7,0-2.9c1-2.4,2.4-2.7,13.3-2.7h9.7v-9.6c0-10.4,0.3-12.1,2.3-13.2C68.6,41.2,69.2,41.2,70.8,42z M204.4,65.5c3.2,1.3,3.2,5.7,0,7c-2.3,1-47.9,0.9-50.3,0c-3.1-1.3-3.2-5.3-0.2-6.8c1.5-0.7,3.7-0.8,25.3-0.8C198.3,64.9,203.2,65,204.4,65.5z M47,152.1c0.6,0.3,5.7,5.2,11.5,10.9L69,173.5l10.5-10.5c5.8-5.7,10.9-10.7,11.5-11c2.3-1.2,4.9,0.4,5.4,3.2c0.3,1.4,0,1.8-10.6,12.4c-6,6-10.9,11.2-10.9,11.4s4.8,5.2,10.6,11.1c6.5,6.5,10.7,11.1,10.9,11.8c0.4,1.7-0.8,3.8-2.5,4.5c-1.1,0.5-1.6,0.5-2.9-0.1c-0.8-0.4-6.1-5.3-11.7-10.9c-5.5-5.6-10.3-10.1-10.5-10.1c-0.2,0.1-5.2,4.8-11.1,10.6c-5.9,5.8-11.2,10.6-11.7,10.8c-2.4,0.7-5.2-2.2-4.5-4.8c0.2-0.6,4.7-5.6,11-11.9l10.7-10.7l-10.7-10.8c-6.6-6.6-10.8-11.2-11-12c-0.4-1.6,0.6-3.6,2.1-4.4C45.1,151.5,45.7,151.5,47,152.1z"/><path fill="#000000" d="M171.7,112.7c-8.5,1.3-15.8,3.5-22.4,6.8c-18.4,9.3-31.1,25.8-35.7,46.4c-1.3,6-1.4,19.9-0.2,25.8c5.8,27.1,25.8,47.3,52.6,53.2c6.7,1.4,19.7,1.4,26.3,0c13.8-3,24.3-8.7,34.1-18.5c9.8-9.8,15.5-20.3,18.5-34.1c1.4-6.6,1.4-19.6,0-26.3c-4.3-20-17-36.8-34.7-46c-5.2-2.7-12.3-5.3-18-6.5C188.9,112.9,174.7,112.2,171.7,112.7z M204.4,159.9c1.4,0.6,2.7,2.9,2.3,4.3c-0.1,0.6-0.7,1.5-1.2,2l-0.9,1.1h-25.3c-24.6,0-25.3,0-26.2-0.9c-1.9-1.9-1.5-5.1,0.9-6.3C155.4,159.3,202.5,159.2,204.4,159.9z M205.1,191.8c1.4,0.7,2.1,3,1.4,4.7c-1.1,2.7-1.2,2.7-27.2,2.7c-19.6,0-23.9-0.1-25.2-0.7c-2.7-1.1-3.2-4.2-1.2-6.2c0.9-0.9,1.7-0.9,26.1-0.9C194.3,191.3,204.6,191.5,205.1,191.8z"/></g></g></g>
</svg>